# Blender 4.1.1
# www.blender.org
o Plane.001
v -0.328465 -0.185194 0.023041
v 0.727735 -0.185194 0.023041
v -0.328465 -0.049784 0.023041
v 0.727735 -0.049784 0.023041
v 0.943746 -0.171875 -0.032924
v 1.224996 -0.171875 -0.032924
v 0.943746 0.171875 -0.032924
v 1.224996 0.171875 -0.032924
v -0.906250 -0.312500 0.000000
v 0.906250 -0.312500 0.000000
v -0.906250 0.312500 0.000000
v 0.906250 0.312500 0.000000
vn -0.0000 -0.0000 -1.0000
vn -0.0000 -0.0000 1.0000
vt 0.638000 0.098000
vt 0.017400 0.098000
vt 0.017400 0.290000
vt 0.638000 0.290000
vt 0.948207 0.000000
vt 0.792969 0.354295
vt 0.792969 0.000000
vt 1.000000 0.355174
vt 0.000000 1.000000
vt 0.000000 0.355174
vt 0.948207 0.354295
vt 1.000000 1.000000
s 0
f 2/1/1 1/2/1 3/3/1
f 2/1/1 3/3/1 4/4/1
f 6/5/2 7/6/2 5/7/2
f 10/8/2 11/9/2 9/10/2
f 6/5/2 8/11/2 7/6/2
f 10/8/2 12/12/2 11/9/2
