# Blender 3.6.4
# www.blender.org
o Plane.012
v 2.720463 0.833333 0.800000
v 2.720463 -0.166667 0.800000
v 3.620463 0.733333 0.800000
v 3.620463 -0.066667 0.800000
v 2.720463 0.033333 0.000000
v 3.720463 0.033333 0.800000
v 3.720463 0.633333 0.800000
v 2.720463 0.633333 0.000000
v 3.520463 0.833333 0.800000
v 3.520463 -0.166667 0.800000
v 3.520463 0.033333 0.000000
v 3.520463 0.633333 0.000000
v 3.720463 -0.166667 0.800000
v 3.720463 0.833333 0.800000
vn -0.6963 0.6963 0.1741
vn -0.9701 -0.0000 0.2425
vn -0.6963 -0.6963 0.1741
vn -0.0000 -0.9701 0.2425
vn -0.0000 -0.0000 1.0000
vn -0.0000 0.9701 0.2425
vt 1.000000 1.000000
vt 0.000000 1.000000
vt 0.000000 0.000000
vt 1.000000 0.000000
s 0
f 11/1/1 4/1/1 6/1/1
f 12/2/2 11/1/2 7/2/2
f 9/2/3 12/2/3 3/2/3
f 1/3/4 8/3/4 9/2/4
f 8/3/5 5/4/5 11/1/5
f 5/4/6 10/1/6 11/1/6
f 4/1/5 13/3/5 6/1/5
f 3/2/5 14/3/5 9/2/5
f 10/1/6 5/4/6 2/4/6
f 13/3/5 4/1/5 10/1/5
f 4/1/1 11/1/1 10/1/1
f 7/2/2 11/1/2 6/1/2
f 14/3/5 3/2/5 7/2/5
f 3/2/3 12/2/3 7/2/3
f 9/2/4 8/3/4 12/2/4
f 11/1/5 12/2/5 8/3/5
o Plane.013
v 2.720462 -0.166667 0.800000
v 1.720462 -0.166667 0.800000
v 2.620463 -1.066667 0.800000
v 1.820463 -1.066667 0.800000
v 1.920462 -0.166667 0.000000
v 1.920463 -1.166667 0.800000
v 2.520463 -1.166667 0.800000
v 2.520462 -0.166667 0.000000
v 2.720463 -0.966667 0.800000
v 1.720463 -0.966667 0.800000
v 1.920463 -0.966667 0.000000
v 2.520463 -0.966667 0.000000
v 1.720463 -1.166667 0.800000
v 2.720463 -1.166667 0.800000
vn 0.6963 0.6963 0.1741
vn -0.0000 0.9701 0.2425
vn -0.6963 0.6963 0.1741
vn -0.9701 -0.0000 0.2425
vn -0.0000 -0.0000 1.0000
vn 0.9701 -0.0000 0.2425
vt 1.000000 1.000000
vt 0.000000 1.000000
vt 0.000000 0.000000
vt 1.000000 0.000000
s 0
f 25/5/7 18/5/7 20/5/7
f 26/6/8 25/5/8 21/6/8
f 23/6/9 26/6/9 17/6/9
f 15/7/10 22/7/10 23/6/10
f 22/7/11 19/8/11 25/5/11
f 19/8/12 24/5/12 25/5/12
f 18/5/11 27/7/11 20/5/11
f 17/6/11 28/7/11 23/6/11
f 24/5/12 19/8/12 16/8/12
f 27/7/11 18/5/11 24/5/11
f 18/5/7 25/5/7 24/5/7
f 21/6/8 25/5/8 20/5/8
f 28/7/11 17/6/11 21/6/11
f 17/6/9 26/6/9 21/6/9
f 23/6/10 22/7/10 26/6/10
f 25/5/11 26/6/11 22/7/11
o ground.018
v 2.720463 -0.166667 0.800000
v 2.720462 0.833333 0.800000
v 1.720463 -0.166667 0.800000
v 1.720462 0.833333 0.800000
v 2.720463 0.633333 0.000000
v 1.720462 0.633333 0.000000
v 1.720463 0.033333 0.000000
v 1.920463 -0.166667 0.000000
v 2.520463 -0.166667 0.000000
v 2.720463 0.033333 0.000000
vn -0.0000 -0.9701 0.2425
vn -0.0000 -0.0000 1.0000
vn 0.6963 0.6963 0.1741
vn -0.6963 0.6963 0.1741
vt 1.000000 0.000000
vt 1.000000 1.000000
vt 0.000000 0.000000
s 0
f 33/9/13 32/10/13 34/10/13
f 36/11/14 37/11/14 34/10/14
f 32/10/13 33/9/13 30/9/13
f 31/11/15 36/11/15 35/11/15
f 38/11/16 37/11/16 29/11/16
f 33/9/14 37/11/14 38/11/14
f 34/10/14 35/11/14 36/11/14
f 34/10/14 37/11/14 33/9/14
o ground.019
v -1.279538 0.833333 0.000000
v -2.279538 0.833333 0.800000
v -1.279537 -0.166667 0.800000
v -2.179537 -0.066667 0.800000
v -2.079538 0.833333 0.000000
v -2.079537 -0.166667 0.800000
v -1.279537 0.033333 0.000000
v -2.279537 0.033333 0.800000
v -2.079537 0.033333 0.000000
v -2.279537 -0.166667 0.800000
vn 0.6963 0.6963 0.1741
vn -0.0000 0.9701 0.2425
vn -0.0000 -0.0000 1.0000
vn 0.9701 -0.0000 0.2425
vt 1.000000 1.000000
vt 0.000000 1.000000
vt 0.000000 0.000000
vt 1.000000 0.000000
s 0
f 47/12/17 46/12/17 42/12/17
f 45/13/18 47/12/18 44/12/18
f 39/14/19 43/15/19 45/13/19
f 43/15/20 46/12/20 47/12/20
f 42/12/19 48/14/19 44/12/19
f 42/12/17 44/12/17 47/12/17
f 48/14/19 42/12/19 46/12/19
f 46/12/20 43/15/20 40/15/20
f 44/12/18 41/13/18 45/13/18
f 45/13/19 43/15/19 47/12/19
o Plane.020
v -0.279538 0.833333 0.000000
v -1.279538 0.833333 0.000000
v -0.279537 -0.166667 0.000000
v -1.279537 -0.166667 0.800000
v -1.079537 -0.166667 0.000000
v -1.279537 0.033333 0.000000
vn -0.0000 -0.0000 1.0000
vn 0.6963 0.6963 0.1741
vt 0.000000 0.000000
vt 1.000000 1.000000
vt 1.000000 0.000000
vt 0.000000 1.000000
s 0
f 49/16/21 54/17/21 53/17/21
f 50/18/21 54/17/21 49/16/21
f 53/17/21 51/19/21 49/16/21
f 53/17/22 54/17/22 52/17/22
o ground.020
v -0.279538 -0.166667 0.000000
v -1.279538 -0.166667 0.800000
v -0.279537 -1.166667 0.000000
v -1.279537 -1.166667 0.800000
v -1.079538 -0.166667 0.000000
v -1.079537 -1.166667 0.000000
vn 0.9701 -0.0000 0.2425
vn -0.0000 -0.0000 1.0000
vt 1.000000 0.000000
vt 1.000000 1.000000
vt 0.000000 0.000000
vt 0.000000 1.000000
s 0
f 59/20/23 58/21/23 60/21/23
f 55/22/24 59/20/24 57/23/24
f 58/21/23 59/20/23 56/20/23
f 57/23/24 59/20/24 60/21/24
o ground.021
v -0.279537 -1.166667 0.000000
v 0.720463 -1.166667 0.800000
v -0.279537 -0.166667 0.000000
v 0.720463 -0.166667 0.800000
v 0.520463 -1.166667 0.000000
v 0.520463 -0.166667 0.000000
vn -0.0000 -0.0000 -1.0000
vn 0.9701 -0.0000 -0.2425
vt 0.000000 0.000000
s 0
f 66/24/25 61/24/25 63/24/25
f 65/24/26 64/24/26 62/24/26
f 66/24/25 65/24/25 61/24/25
f 65/24/26 66/24/26 64/24/26
o ground.022
v -0.279538 -1.166667 0.000000
v -1.279538 -1.166667 0.800000
v -0.279537 -2.166667 0.800000
v -1.079538 -1.166667 0.000000
v -1.079537 -2.166667 0.800000
v -0.279537 -1.966667 0.000000
v -1.279537 -1.966667 0.800000
v -1.079537 -1.966667 0.000000
v -1.279537 -2.166667 0.800000
vn 0.9701 -0.0000 0.2425
vn -0.0000 0.9701 0.2425
vn -0.0000 -0.0000 1.0000
vn 0.6963 0.6963 0.1741
vt 1.000000 0.000000
vt 1.000000 1.000000
vt 0.000000 1.000000
vt 0.000000 0.000000
s 1
f 68/25/27 74/26/27 70/25/27
f 69/27/28 74/26/28 71/26/28
f 71/26/29 73/26/29 75/28/29
f 74/26/29 67/28/29 70/25/29
f 73/26/30 71/26/30 74/26/30
f 68/25/27 73/26/27 74/26/27
f 69/27/28 72/27/28 74/26/28
f 74/26/29 72/27/29 67/28/29
o ground.023
v -0.279537 -1.166667 0.000000
v -0.279537 -2.166667 0.800000
v 0.720463 -1.166667 0.800000
v -0.279537 -1.966667 0.000000
v 0.720463 -1.966667 0.800000
v 0.520463 -1.166667 0.000000
v 0.520463 -2.166667 0.800000
v 0.520463 -1.966667 0.000000
v 0.720463 -2.166667 0.800000
vn -0.0000 0.9701 0.2425
vn -0.9701 -0.0000 0.2425
vn -0.6963 0.6963 0.1741
vn -0.0000 -0.0000 1.0000
vt 1.000000 0.000000
vt 1.000000 1.000000
vt 0.000000 1.000000
vt 0.000000 0.000000
s 1
f 77/29/31 83/30/31 79/29/31
f 78/31/32 83/30/32 80/30/32
f 82/30/33 80/30/33 83/30/33
f 82/30/34 84/32/34 80/30/34
f 83/30/34 76/32/34 79/29/34
f 77/29/31 82/30/31 83/30/31
f 78/31/32 81/31/32 83/30/32
f 83/30/34 81/31/34 76/32/34
o ground.024
v -1.279537 1.833333 0.000000
v -1.279538 2.833333 0.800000
v -2.279537 1.833333 0.800000
v -2.179538 2.733333 0.800000
v -1.279538 2.633333 0.000000
v -2.279538 2.633333 0.800000
v -2.079537 1.833333 0.000000
v -2.079538 2.833333 0.800000
v -2.079538 2.633333 0.000000
v -2.279538 2.833333 0.800000
vn 0.6963 -0.6963 0.1741
vn 0.9701 -0.0000 0.2425
vn -0.0000 -0.0000 1.0000
vn -0.0000 -0.9701 0.2425
vt 1.000000 1.000000
vt 0.000000 1.000000
vt 0.000000 0.000000
vt 1.000000 0.000000
s 0
f 93/33/35 92/33/35 88/33/35
f 91/34/36 93/33/36 90/33/36
f 85/35/37 89/36/37 91/34/37
f 89/36/38 92/33/38 93/33/38
f 88/33/37 94/35/37 90/33/37
f 88/33/35 90/33/35 93/33/35
f 94/35/37 88/33/37 92/33/37
f 92/33/38 89/36/38 86/36/38
f 90/33/36 87/34/36 91/34/36
f 91/34/37 89/36/37 93/33/37
o ground.025
v -0.279537 1.833333 0.000000
v 0.720463 1.833333 0.800000
v -0.279537 2.833333 0.800000
v 0.620463 2.733333 0.800000
v 0.520463 1.833333 0.000000
v 0.520463 2.833333 0.800000
v -0.279537 2.633333 0.000000
v 0.720463 2.633333 0.800000
v 0.520463 2.633333 0.000000
v 0.720463 2.833333 0.800000
vn -0.6963 -0.6963 0.1741
vn -0.0000 -0.9701 0.2425
vn -0.0000 -0.0000 1.0000
vn -0.9701 -0.0000 0.2425
vt 1.000000 1.000000
vt 0.000000 1.000000
vt 0.000000 0.000000
vt 1.000000 0.000000
s 0
f 103/37/39 102/37/39 98/37/39
f 101/38/40 103/37/40 100/37/40
f 95/39/41 99/40/41 101/38/41
f 99/40/42 102/37/42 103/37/42
f 98/37/41 104/39/41 100/37/41
f 98/37/39 100/37/39 103/37/39
f 104/39/41 98/37/41 102/37/41
f 102/37/42 99/40/42 96/40/42
f 100/37/40 97/38/40 101/38/40
f 101/38/41 99/40/41 103/37/41
o ground.026
v -0.279537 1.833333 0.000000
v -0.279538 2.833333 0.800000
v -1.279537 1.833333 0.000000
v -1.279538 2.833333 0.800000
v -0.279538 2.633333 0.000000
v -1.279538 2.633333 0.000000
vn -0.0000 -0.9701 0.2425
vn -0.0000 -0.0000 1.0000
vt 1.000000 0.000000
vt 1.000000 1.000000
vt 0.000000 0.000000
vt 0.000000 1.000000
s 0
f 109/41/43 108/42/43 110/42/43
f 105/43/44 109/41/44 107/44/44
f 108/42/43 109/41/43 106/41/43
f 107/44/44 109/41/44 110/42/44
o ground.027
v -1.279537 1.833333 0.000000
v -1.279537 0.833333 0.000000
v -0.279537 1.833333 0.000000
v -0.279537 0.833333 0.000000
vn -0.0000 -0.0000 1.0000
vt 0.000000 0.000000
vt 1.000000 0.000000
vt 0.000000 1.000000
vt 1.000000 1.000000
s 0
f 111/45/45 112/46/45 113/47/45
f 113/47/45 112/46/45 114/48/45
o ground.028
v -1.279538 1.833333 0.000000
v -2.279538 1.833333 0.800000
v -1.279537 0.833333 0.000000
v -2.279537 0.833333 0.800000
v -2.079538 1.833333 0.000000
v -2.079537 0.833333 0.000000
vn 0.9701 -0.0000 0.2425
vn -0.0000 -0.0000 1.0000
vt 1.000000 0.000000
vt 1.000000 1.000000
vt 0.000000 0.000000
vt 0.000000 1.000000
s 0
f 119/49/46 118/50/46 120/50/46
f 115/51/47 119/49/47 117/52/47
f 118/50/46 119/49/46 116/49/46
f 117/52/47 119/49/47 120/50/47
o ground.030
v 0.720463 0.833333 0.000000
v 1.720463 0.833333 0.800000
v 0.720463 1.833333 0.800000
v 1.620463 1.733333 0.800000
v 1.520463 0.833333 0.000000
v 1.520463 1.833333 0.800000
v 0.720463 1.633333 0.000000
v 1.720463 1.633333 0.800000
v 1.520463 1.633333 0.000000
v 1.720463 1.833333 0.800000
vn -0.6963 -0.6963 0.1741
vn -0.0000 -0.9701 0.2425
vn -0.0000 -0.0000 1.0000
vn -0.9701 -0.0000 0.2425
vt 1.000000 1.000000
vt 0.000000 1.000000
vt 0.000000 0.000000
vt 1.000000 0.000000
s 0
f 129/53/48 128/53/48 124/53/48
f 127/54/49 129/53/49 126/53/49
f 121/55/50 125/56/50 127/54/50
f 125/56/51 128/53/51 129/53/51
f 124/53/50 130/55/50 126/53/50
f 124/53/48 126/53/48 129/53/48
f 130/55/50 124/53/50 128/53/50
f 128/53/51 125/56/51 122/56/51
f 126/53/49 123/54/49 127/54/49
f 127/54/50 125/56/50 129/53/50
o ground.031
v 0.720463 0.833333 0.000000
v 0.720463 -0.166667 0.800000
v 1.720463 0.833333 0.800000
v 1.720463 -0.166667 0.800000
v 0.720463 0.033333 0.000000
v 1.720463 0.033333 0.000000
v 1.720463 0.633333 0.000000
v 1.520463 0.833333 0.000000
vn -0.0000 0.9701 0.2425
vn -0.0000 -0.0000 1.0000
vn -0.6963 -0.6963 0.1741
vt 1.000000 0.000000
vt 1.000000 1.000000
vt 0.000000 0.000000
s 0
f 135/57/52 134/58/52 136/58/52
f 137/59/53 135/57/53 136/58/53
f 134/58/52 135/57/52 132/57/52
f 135/57/53 138/59/53 131/59/53
f 133/59/54 138/59/54 137/59/54
f 138/59/53 135/57/53 137/59/53
o Plane.021
v -0.279537 0.833333 0.000000
v 0.720463 0.833333 0.000000
v -0.279537 1.833333 0.000000
v 0.720463 1.833333 0.800000
v 0.520463 1.833333 0.000000
v 0.720463 1.633333 0.000000
vn -0.0000 -0.0000 1.0000
vn -0.6963 -0.6963 0.1741
vt 0.000000 0.000000
vt 1.000000 1.000000
vt 1.000000 0.000000
vt 0.000000 1.000000
s 0
f 139/60/55 144/61/55 143/61/55
f 140/62/55 144/61/55 139/60/55
f 143/61/55 141/63/55 139/60/55
f 143/61/56 144/61/56 142/61/56
o Plane.022
v -0.279537 0.833333 0.000000
v -0.279537 -0.166667 0.000000
v 0.720463 0.833333 0.000000
v 0.720463 -0.166667 0.800000
v 0.720463 0.033333 0.000000
v 0.520463 -0.166667 0.000000
vn -0.0000 -0.0000 1.0000
vn -0.6963 0.6963 0.1741
vt 0.000000 0.000000
vt 1.000000 1.000000
vt 1.000000 0.000000
vt 0.000000 1.000000
s 0
f 145/64/57 150/65/57 149/65/57
f 146/66/57 150/65/57 145/64/57
f 149/65/57 147/67/57 145/64/57
f 149/65/58 150/65/58 148/65/58
